<svg xmlns="http://www.w3.org/2000/svg" viewBox="0 0 32 32" fill="none">
  <defs>
    <linearGradient id="fg" x1="0%" y1="0%" x2="100%" y2="100%">
      <stop offset="0%" stop-color="#0d9488"/>
      <stop offset="100%" stop-color="#115e59"/>
    </linearGradient>
  </defs>
  <rect width="32" height="32" rx="6" fill="#0f172a"/>
  <path d="M16 4c-2 0-5 3-6.5 8-1 3.2-.3 6.2 1.4 8.8 1.7 2.6 4 4.2 5.1 4.2s3.4-1.6 5.1-4.2c1.7-2.6 2.4-5.6 1.4-8.8C21 7 18 4 16 4z" fill="url(#fg)" stroke="#0d9488" stroke-width="0.4" stroke-linejoin="round"/>
  <path d="M16 6v14" stroke="#134e4a" stroke-width="0.4" stroke-linecap="round" opacity="0.6"/>
  <path d="M11 21.5s1.2-1 2.2 0 1 1 2.2 0 1.2-1 2.2 0" stroke="#14b8a6" stroke-width="0.7" stroke-linecap="round" fill="none"/>
</svg>
