<svg xmlns="http://www.w3.org/2000/svg" viewBox="0 0 48 48" fill="none" aria-hidden="true">
  <defs>
    <linearGradient id="leafGrad" x1="0%" y1="0%" x2="100%" y2="100%">
      <stop offset="0%" stop-color="#14b8a6"/>
      <stop offset="35%" stop-color="#0d9488"/>
      <stop offset="70%" stop-color="#0f766e"/>
      <stop offset="100%" stop-color="#115e59"/>
    </linearGradient>
    <filter id="softShadow" x="-30%" y="-30%" width="160%" height="160%">
      <feDropShadow dx="0" dy="1.5" stdDeviation="1.2" flood-color="#0f766e" flood-opacity="0.2"/>
    </filter>
  </defs>
  <!-- Realistic leaf: asymmetric, with stem and subtle curve -->
  <path d="M24 4.5c-2.5 0-6 3.2-8 10.2-1.5 4.2-.5 8.8 1.6 12.5 2.1 3.7 5 6.3 6.4 6.3 1.4 0 4.3-2.6 6.4-6.3 2.1-3.7 3.1-8.3 1.6-12.5C30 7.7 26.5 4.5 24 4.5z" fill="url(#leafGrad)" filter="url(#softShadow)" stroke="#0f766e" stroke-width="0.45" stroke-linejoin="round"/>
  <!-- Central vein (midrib) -->
  <path d="M24 6.8v26" stroke="#134e4a" stroke-width="0.5" stroke-linecap="round" opacity="0.45"/>
  <!-- Heartbeat / pulse line (health) -->
  <path d="M17 33.5s1.2-1.2 2.8 0 1 1.2 2.8 0 1.2-1.2 2.8 0" stroke="#0d9488" stroke-width="1" stroke-linecap="round" stroke-linejoin="round" fill="none" opacity="0.95"/>
</svg>
